<?xml version="1.0" standalone="no"?>
<!DOCTYPE svg PUBLIC "-//W3C//DTD SVG 20010904//EN"
 "http://www.w3.org/TR/2001/REC-SVG-20010904/DTD/svg10.dtd">
<svg version="1.0" xmlns="http://www.w3.org/2000/svg"
 width="700.000000pt" height="700.000000pt" viewBox="0 0 700.000000 700.000000"
 preserveAspectRatio="xMidYMid meet">
<metadata>
Created by potrace 1.11, written by Peter Selinger 2001-2013
</metadata>
<g transform="translate(0.000000,700.000000) scale(0.100000,-0.100000)"
fill="#000000" stroke="none">
<path d="M0 3500 l0 -3500 3500 0 3500 0 0 3500 0 3500 -3500 0 -3500 0 0
-3500z m6400 0 l0 -2900 -2900 0 -2900 0 0 2900 0 2900 2900 0 2900 0 0 -2900z"/>
<path d="M2550 5750 l-64 -5 0 -265 0 -265 782 0 783 0 -4 -1310 c-2 -720 -7
-1328 -11 -1350 -55 -297 -167 -474 -362 -570 -109 -54 -222 -75 -384 -71 -74
2 -153 7 -175 11 -55 10 -177 51 -244 82 -134 63 -304 204 -411 342 l-55 70
-20 -22 c-11 -12 -43 -49 -71 -82 -27 -33 -58 -71 -69 -84 -11 -13 -27 -31
-36 -40 -8 -9 -48 -55 -88 -104 l-73 -87 41 -55 c156 -207 401 -382 664 -474
96 -33 97 -34 207 -56 147 -30 212 -37 349 -37 97 -1 234 8 285 18 11 2 38 6
61 9 59 9 150 33 235 62 412 142 672 487 744 986 4 27 10 59 14 70 3 12 8 743
9 1625 l4 1602 -418 1 c-230 0 -690 1 -1023 2 -333 1 -634 0 -670 -3z"/>
</g>
</svg>
