<?xml version="1.0" encoding="UTF-8" standalone="no"?>
<svg
   xmlns:dc="http://purl.org/dc/elements/1.1/"
   xmlns:cc="http://creativecommons.org/ns#"
   xmlns:rdf="http://www.w3.org/1999/02/22-rdf-syntax-ns#"
   xmlns:svg="http://www.w3.org/2000/svg"
   xmlns="http://www.w3.org/2000/svg"
   xmlns:sodipodi="http://sodipodi.sourceforge.net/DTD/sodipodi-0.dtd"
   xmlns:inkscape="http://www.inkscape.org/namespaces/inkscape"
   id="bebdbc02-5f56-4bd5-9ad9-bce5f07a2c3e"
   data-name="Layer 1"
   width="804.90869"
   height="783.89355"
   viewBox="0 0 804.90867 783.89357"
   version="1.1"
   sodipodi:docname="undraw_selecting_1lx3.svg"
   inkscape:version="0.92.3 (2405546, 2018-03-11)">
  <metadata
     id="metadata173">
    <rdf:RDF>
      <cc:Work
         rdf:about="">
        <dc:format>image/svg+xml</dc:format>
        <dc:type
           rdf:resource="http://purl.org/dc/dcmitype/StillImage" />
        <dc:title>lists</dc:title>
      </cc:Work>
    </rdf:RDF>
  </metadata>
  <defs
     id="defs171" />
  <sodipodi:namedview
     pagecolor="#ffffff"
     bordercolor="#666666"
     borderopacity="1"
     objecttolerance="10"
     gridtolerance="10"
     guidetolerance="10"
     inkscape:pageopacity="0"
     inkscape:pageshadow="2"
     inkscape:window-width="1870"
     inkscape:window-height="1016"
     id="namedview169"
     showgrid="false"
     fit-margin-top="0"
     fit-margin-left="0"
     fit-margin-right="0"
     fit-margin-bottom="0"
     inkscape:zoom="1.0396022"
     inkscape:cx="338.18733"
     inkscape:cy="391.94679"
     inkscape:window-x="0"
     inkscape:window-y="28"
     inkscape:window-maximized="1"
     inkscape:current-layer="bebdbc02-5f56-4bd5-9ad9-bce5f07a2c3e" />
  <title
     id="title2">lists</title>
  <path
     d="m 425.0192,756.14167 c 0,15.28692 -94.57823,27.67192 -211.44706,27.7519 h -1.06254 c -57.04625,0 -108.84836,-2.93629 -147.02008,-7.7006 -1.6338,-0.21709 -3.2448,-0.42273 -4.82149,-0.63981 -6.48953,-0.8569 -12.55633,-1.78234 -18.1433,-2.74209 C 15.82394,768.16098 0,762.39125 0,756.14167 c 0,-5.06144 10.35127,-9.79144 28.43745,-13.8817 9.55149,-2.15939 21.25094,-4.1245 34.73271,-5.86116 q 3.719,-0.497 7.63206,-0.93688 c 37.60053,-4.39869 87.26605,-7.07223 141.70738,-7.07223 10.57979,0 20.98817,0.10286 31.15667,0.29707 102.58727,1.96511 181.35293,13.50465 181.35293,27.4549 z"
     id="path4"
     inkscape:connector-curvature="0"
     style="fill:#3f3d56" />
  <rect
     x="489.17093"
     y="416.06561"
     width="314.75412"
     height="161.31149"
     id="rect6"
     style="fill:#f2f2f2" />
  <rect
     x="97.69548"
     y="0.98360997"
     width="314.75412"
     height="161.31149"
     id="rect8"
     style="fill:#f2f2f2" />
  <path
     d="M 413.43323,163.27871 H 96.71189 V 0 H 413.43323 Z M 98.6791,161.31149 H 411.46602 V 1.96721 H 98.6791 Z"
     id="path10"
     inkscape:connector-curvature="0"
     style="fill:#03bc25" />
  <rect
     x="489.17093"
     y="0.98360997"
     width="314.75412"
     height="161.31149"
     id="rect12"
     style="fill:#f2f2f2" />
  <rect
     x="97.69548"
     y="208.52461"
     width="314.75412"
     height="161.31149"
     id="rect14"
     style="fill:#f2f2f2" />
  <rect
     x="489.17093"
     y="208.52461"
     width="314.75412"
     height="161.31149"
     id="rect16"
     style="fill:#f2f2f2" />
  <rect
     x="97.69548"
     y="416.06561"
     width="314.75412"
     height="161.31149"
     id="rect18"
     style="fill:#f2f2f2" />
  <path
     d="m 378.18084,577.04422 q -19.18523,-3.25031 -36.90106,-5.58273 l 4.669,-9.05252 c -1.57439,-0.54682 -8.49144,4.63729 -8.49144,4.63729 l 6.1273,-26.27728 c -7.9182,0.9549 -11.9441,27.78561 -11.9441,27.78561 l -8.84669,-9.07128 4.283,10.1985 a 816.82143,816.82143 0 0 0 -93.62328,-5.89217 l 3.99619,-7.748 c -1.57439,-0.54682 -8.49144,4.63729 -8.49144,4.63729 l 6.12729,-26.27729 c -7.91819,0.95491 -11.9441,27.78562 -11.9441,27.78562 l -8.84668,-9.07129 4.53634,10.80189 a 525.9061,525.9061 0 0 0 -53.82008,3.65579 c 4.042,-12.07 17.7728,-23.54953 17.7728,-23.54953 -10.48615,3.11875 -15.98671,8.34487 -18.86091,13.21713 a 211.63887,211.63887 0 0 1 12.23271,-73.124 c 0,0 -21.67451,47.16568 -18.90888,78.82526 l 0.33079,5.62183 c -18.3751,2.63107 -25.60407,8.81279 -25.60407,8.81279 z"
     id="path26"
     inkscape:connector-curvature="0"
     style="fill:#3f3d56" />
  <circle
     cx="227.17091"
     cy="255.58759"
     r="34.786869"
     id="circle28"
     style="fill:#ff6584" />
  <polygon
     points="747.757,452.112 805.67,452.112 805.67,470.057 768.149,495.343 728.996,475.767 724.918,472.504 "
     id="polygon30"
     style="fill:#3f3d56"
     transform="translate(-128.53404)" />
  <polygon
     points="808.54,452.52 808.54,455.221 805.67,452.112 786.909,472.504 779.568,477.398 768.186,560.56 785.352,577.726 825.246,577.726 825.246,473.32 816.229,463.551 816.229,452.52 "
     id="polygon32"
     style="fill:#cccccc"
     transform="translate(-128.53404)" />
  <rect
     x="596.38403"
     y="472.50394"
     width="61.991211"
     height="105.22193"
     id="rect34"
     style="fill:#f2f2f2" />
  <rect
     x="620.44641"
     y="552.03217"
     width="11.41943"
     height="25.693729"
     id="rect36"
     style="fill:#cccccc" />
  <polygon
     points="731.851,555.295 731.851,559.373 736.338,559.373 736.745,559.373 736.745,555.295 "
     id="polygon38"
     style="fill:#3f3d56"
     transform="translate(-128.53404)" />
  <polygon
     points="731.851,566.714 736.745,566.714 736.745,562.636 736.338,562.636 731.851,562.636 "
     id="polygon40"
     style="fill:#3f3d56"
     transform="translate(-128.53404)" />
  <rect
     x="611.474"
     y="555.29486"
     width="4.8940401"
     height="4.0783701"
     id="rect42"
     style="fill:#3f3d56" />
  <rect
     x="611.474"
     y="562.63593"
     width="4.8940401"
     height="4.0783701"
     id="rect44"
     style="fill:#3f3d56" />
  <polygon
     points="765.294,555.295 765.294,559.373 769.78,559.373 770.188,559.373 770.188,555.295 "
     id="polygon46"
     style="fill:#3f3d56"
     transform="translate(-128.53404)" />
  <polygon
     points="765.294,566.714 770.188,566.714 770.188,562.636 769.78,562.636 765.294,562.636 "
     id="polygon48"
     style="fill:#3f3d56"
     transform="translate(-128.53404)" />
  <rect
     x="644.91663"
     y="555.29486"
     width="4.8940401"
     height="4.0783701"
     id="rect50"
     style="fill:#3f3d56" />
  <rect
     x="644.91663"
     y="562.63593"
     width="4.8940401"
     height="4.0783701"
     id="rect52"
     style="fill:#3f3d56" />
  <polygon
     points="799.552,473.727 799.552,477.806 804.038,477.806 804.446,477.806 804.446,473.727 "
     id="polygon54"
     style="fill:#3f3d56"
     transform="translate(-128.53404)" />
  <polygon
     points="799.552,485.147 804.446,485.147 804.446,481.069 804.038,481.069 799.552,481.069 "
     id="polygon56"
     style="fill:#3f3d56"
     transform="translate(-128.53404)" />
  <rect
     x="679.17493"
     y="473.72748"
     width="4.8940401"
     height="4.0783701"
     id="rect58"
     style="fill:#3f3d56" />
  <rect
     x="679.17493"
     y="481.06854"
     width="4.8940401"
     height="4.0783701"
     id="rect60"
     style="fill:#3f3d56" />
  <polygon
     points="799.552,496.566 799.552,500.645 804.038,500.645 804.446,500.645 804.446,496.566 "
     id="polygon62"
     style="fill:#3f3d56"
     transform="translate(-128.53404)" />
  <polygon
     points="799.552,507.986 804.446,507.986 804.446,503.907 804.038,503.907 799.552,503.907 "
     id="polygon64"
     style="fill:#3f3d56"
     transform="translate(-128.53404)" />
  <rect
     x="679.17493"
     y="496.56635"
     width="4.8940401"
     height="4.0783701"
     id="rect66"
     style="fill:#3f3d56" />
  <rect
     x="679.17493"
     y="503.90741"
     width="4.8940401"
     height="4.0783701"
     id="rect68"
     style="fill:#3f3d56" />
  <polygon
     points="799.552,519.405 799.552,523.484 804.038,523.484 804.446,523.484 804.446,519.405 "
     id="polygon70"
     style="fill:#3f3d56"
     transform="translate(-128.53404)" />
  <polygon
     points="799.552,530.825 804.446,530.825 804.446,526.746 804.038,526.746 799.552,526.746 "
     id="polygon72"
     style="fill:#3f3d56"
     transform="translate(-128.53404)" />
  <rect
     x="679.17493"
     y="519.40521"
     width="4.8940401"
     height="4.0783701"
     id="rect74"
     style="fill:#3f3d56" />
  <rect
     x="679.17493"
     y="526.74628"
     width="4.8940401"
     height="4.0783701"
     id="rect76"
     style="fill:#3f3d56" />
  <polygon
     points="799.552,542.244 799.552,546.322 804.038,546.322 804.446,546.322 804.446,542.244 "
     id="polygon78"
     style="fill:#3f3d56"
     transform="translate(-128.53404)" />
  <polygon
     points="799.552,553.664 804.446,553.664 804.446,549.585 804.038,549.585 799.552,549.585 "
     id="polygon80"
     style="fill:#3f3d56"
     transform="translate(-128.53404)" />
  <rect
     x="679.17493"
     y="542.24408"
     width="4.8940401"
     height="4.0783701"
     id="rect82"
     style="fill:#3f3d56" />
  <rect
     x="679.17493"
     y="549.58514"
     width="4.8940401"
     height="4.0783701"
     id="rect84"
     style="fill:#3f3d56" />
  <rect
     x="603.31726"
     y="477.80582"
     width="47.309078"
     height="9.7880898"
     id="rect86"
     style="fill:#3f3d56" />
  <rect
     x="603.31726"
     y="497.38202"
     width="47.309078"
     height="9.7880898"
     id="rect88"
     style="fill:#3f3d56" />
  <rect
     x="603.31726"
     y="516.95819"
     width="47.309078"
     height="9.7880898"
     id="rect90"
     style="fill:#3f3d56" />
  <rect
     x="603.31726"
     y="536.53436"
     width="47.309078"
     height="9.7880898"
     id="rect92"
     style="fill:#3f3d56" />
  <polygon
     points="397.421,459.771 420.328,459.771 420.328,469.793 463.279,469.793 463.279,514.176 420.328,514.176 420.328,570.012 397.421,570.012 397.421,514.176 355.902,514.176 334.426,489.837 355.902,469.793 397.421,469.793 "
     id="polygon94"
     style="fill:#3f3d56"
     transform="translate(-128.53404)" />
  <path
     d="m 349.4988,369.8361 h -1.96722 a 96.39345,96.39345 0 1 0 -192.7869,0 h -1.96721 a 98.36067,98.36067 0 0 1 196.72133,0 z"
     id="path96"
     inkscape:connector-curvature="0"
     style="fill:#3f3d56" />
  <rect
     x="201.26308"
     y="271.36761"
     width="2.5138445"
     height="99.297043"
     transform="rotate(-0.10771594)"
     id="rect98"
     style="fill:#3f3d56;stroke-width:1.00000179" />
  <path
     d="m 227.50832,283.59564 c 0.22517,34.72128 -24.15028,63.0277 -24.15028,63.0277 0,0 -24.74052,-27.98789 -24.96569,-62.70917 -0.22517,-34.72128 24.15027,-63.0277 24.15027,-63.0277 0,0 24.74052,27.98789 24.9657,62.70917 z"
     id="path100"
     inkscape:connector-curvature="0"
     style="fill:#03bc25" />
  <path
     d="m 227.50832,283.59564 c 0.22517,34.72128 -24.15028,63.0277 -24.15028,63.0277 0,0 -24.74052,-27.98789 -24.96569,-62.70917 -0.22517,-34.72128 24.15027,-63.0277 24.15027,-63.0277 0,0 24.74052,27.98789 24.9657,62.70917 z"
     id="path102"
     inkscape:connector-curvature="0"
     style="opacity:0.1" />
  <rect
     x="168.58304"
     y="271.36765"
     width="2.5138445"
     height="99.297043"
     transform="rotate(-0.10771594)"
     id="rect104"
     style="fill:#3f3d56;stroke-width:1.00000179" />
  <path
     d="m 194.82838,283.657 c 0.22518,34.72128 -24.15027,63.0277 -24.15027,63.0277 0,0 -24.74052,-27.9879 -24.96569,-62.70918 -0.22517,-34.72128 24.15027,-63.0277 24.15027,-63.0277 0,0 24.74052,27.98786 24.96569,62.70918 z"
     id="path106"
     inkscape:connector-curvature="0"
     style="fill:#03bc25" />
  <rect
     x="337.01022"
     y="291.88025"
     width="1.9901299"
     height="78.610321"
     id="rect108"
     style="fill:#3f3d56" />
  <path
     d="m 357.36703,301.89823 c 0.12669,27.48807 -19.21262,49.86116 -19.21262,49.86116 0,0 -19.54472,-22.19388 -19.67141,-49.68195 -0.12669,-27.48807 19.21263,-49.86116 19.21263,-49.86116 0,0 19.54469,22.19387 19.6714,49.68195 z"
     id="path110"
     inkscape:connector-curvature="0"
     style="fill:#03bc25" />
  <circle
     cx="642.07471"
     cy="291.63937"
     r="68.40773"
     id="circle112"
     style="fill:#3f3d56" />
  <polygon
     points="735.823,294.807 728.132,304.034 729.01,294.807 725.269,294.807 725.269,266.171 777.45,266.171 777.45,294.807 "
     id="polygon114"
     style="fill:#03bc25"
     transform="translate(-128.53404)" />
  <rect
     x="630.14313"
     y="276.03476"
     width="18.77235"
     height="18.77235"
     id="rect116"
     style="opacity:0.1" />
  <polygon
     points="814.994,308.807 811.252,308.807 812.131,318.034 804.441,308.807 762.813,308.807 762.813,280.171 814.994,280.171 "
     id="polygon118"
     style="fill:#03bc25"
     transform="translate(-128.53404)" />
  <ellipse
     cx="599.91644"
     cy="307.53415"
     rx="11.45432"
     ry="1.1174901"
     id="ellipse120"
     style="opacity:0.1" />
  <ellipse
     cx="683.59662"
     cy="322.48837"
     rx="13.04519"
     ry="1.2727"
     id="ellipse122"
     style="opacity:0.1" />
  <path
     d="m 680.90882,21.0316 h -45.2035 a 9.60936,9.60936 0 0 0 -9.37409,7.496 l -22.84044,101.31003 a 7.76645,7.76645 0 0 0 7.1941,9.46513 l 46.46951,2.28955 a 10.2603,10.2603 0 0 0 10.60137,-8.42156 l 12.95649,-71.62734 0.9639,0.2754 2.47911,-13.57606 -0.99221,-0.24805 3.61661,-19.99376 a 5.91643,5.91643 0 0 0 -5.87085,-6.96934 z"
     id="path124"
     inkscape:connector-curvature="0"
     style="fill:#3f3d56" />
  <path
     d="m 641.65632,23.21557 h -5.27661 a 6.64081,6.64081 0 0 0 -6.48818,5.22521 l -21.92367,100.4835 a 4.11488,4.11488 0 0 0 3.75119,4.98323 l 46.31918,3.03571 a 5.32916,5.32916 0 0 0 5.59329,-4.37305 L 682.33913,28.71069 a 4.66768,4.66768 0 0 0 -4.59375,-5.49512 h -5.00569 a 2.20288,2.20288 0 0 0 -2.12714,1.6302 v 0 a 1.94476,1.94476 0 0 1 -1.87789,1.43917 h -23.7638 a 3.32434,3.32434 0 0 1 -3.31454,-3.06937 z"
     id="path126"
     inkscape:connector-curvature="0"
     style="fill:#03bc25" />
  <circle
     cx="261.41275"
     cy="81.78849"
     r="65.460922"
     id="circle128"
     style="fill:#03bc25" />
  <path
     d="m 318.41249,122.888 c -12.56848,7.8e-4 -40.32306,-12.90833 -65.00687,-28.02709 -30.63032,-18.761 -60.3785,-43.28289 -55.17787,-51.77425 1.47,-2.39963 5.11342,-3.02717 11.14053,-1.92079 l -0.43212,2.35291 c -4.66729,-0.85879 -7.82566,-0.559 -8.66849,0.81675 -1.2294,2.00722 1.48128,7.83423 12.77519,18.16852 10.29225,9.41867 25.07038,20.18508 41.61241,30.31694 16.54164,10.13186 32.84776,18.40443 45.91376,23.294 14.33783,5.36608 20.76007,5.13172 21.9887,3.12606 0.844,-1.37811 -0.32857,-4.33132 -3.21755,-8.10362 l 1.899,-1.45441 c 3.73063,4.87167 4.82923,8.40649 3.35847,10.8069 -1.00984,1.64908 -3.15682,2.39808 -6.18516,2.39808 z"
     id="path130"
     inkscape:connector-curvature="0"
     style="fill:#3f3d56" />
  <circle
     cx="253.33266"
     cy="48.140919"
     r="13.38973"
     id="circle132"
     style="fill:#ffffff" />
  <circle
     cx="257.21091"
     cy="121.54293"
     r="8.9264898"
     id="circle134"
     style="fill:#ffffff" />
  <circle
     cx="287.94971"
     cy="90.940437"
     r="8.9264898"
     id="circle136"
     style="fill:#ffffff" />
  <path
     d="M 804.90872,578.36071 H 488.18732 V 415.082 h 316.7213 z M 490.15455,576.3935 H 802.94142 V 417.04922 H 490.15455 Z"
     id="path138"
     inkscape:connector-curvature="0"
     style="fill:#03bc25" />
  <path
     d="M 802.94142,371.80332 H 486.22012 V 208.52461 h 316.7213 z m -314.7541,-1.96722 h 312.7869 V 210.49182 h -312.7869 z"
     id="path140"
     inkscape:connector-curvature="0"
     style="fill:#03bc25" />
  <path
     d="m 95.87611,720.30317 c 5.36982,19.85008 23.76267,32.14374 23.76267,32.14374 0,0 9.68665,-19.88969 4.31683,-39.73977 -5.36982,-19.85008 -23.76267,-32.14374 -23.76267,-32.14374 0,0 -9.68662,19.88968 -4.31683,39.73977 z"
     id="path142"
     inkscape:connector-curvature="0"
     style="fill:#3f3d56" />
  <path
     d="m 103.76668,716.03717 c 14.73487,14.3438 16.53462,36.39356 16.53462,36.39356 0,0 -22.09018,-1.20614 -36.825,-15.54994 -14.73482,-14.3438 -16.53463,-36.39355 -16.53463,-36.39355 0,0 22.09014,1.20613 36.82501,15.54993 z"
     id="path144"
     inkscape:connector-curvature="0"
     style="fill:#03bc25" />
  <path
     d="m 155.24332,443.63387 -15.70335,1.74482 c 0,0 -6.97927,31.4067 0,73.28231 6.97927,41.87561 15.70335,83.75121 15.70335,83.75121 0,0 6.97927,136.09571 10.4689,137.84053 3.48963,1.74482 34.89634,12.21372 36.64115,1.74482 1.74481,-10.4689 1.74482,-249.50882 1.74482,-249.50882 l 24.42744,115.15792 c 0,0 3.48963,144.8198 10.4689,144.8198 6.97927,0 29.66188,-1.74482 29.66188,-13.95854 0,-12.21372 5.23445,-172.73692 5.23445,-172.73692 0,0 -1.74481,-118.64754 -8.72408,-122.13718 -6.97927,-3.48964 -109.92346,5e-5 -109.92346,5e-5 z"
     id="path146"
     inkscape:connector-curvature="0"
     style="fill:#2f2e41" />
  <path
     d="m 169.20185,735.01829 c 0,0 -15.70335,-1.74482 -19.193,0 -3.48965,1.74482 -8.72409,13.95853 0,20.9378 8.72409,6.97927 31.4067,17.44817 38.386,17.44817 6.9793,0 13.95853,-3.48963 13.95853,-3.48963 l -3.48963,-29.66189 z"
     id="path148"
     inkscape:connector-curvature="0"
     style="fill:#2f2e41" />
  <path
     d="m 238.99453,743.74237 1.74481,24.42744 c 0,0 22.68262,3.48963 24.42744,0 1.74482,-3.48963 19.193,-12.21372 20.9378,-13.95854 1.7448,-1.74482 3.48964,-20.9378 -6.97926,-22.68262 -10.4689,-1.74482 -13.95854,3.48964 -13.95854,3.48964 z"
     id="path150"
     inkscape:connector-curvature="0"
     style="fill:#2f2e41" />
  <path
     d="m 279.54147,236.01532 c 0,0 38.147,-24.53087 37.26414,-41.38406 -0.88286,-16.85319 -23.87951,-69.9918 -23.87951,-69.9918 0,0 -17.99016,-37.4032 -25.14209,-22.11729 -7.15193,15.28591 9.39989,31.55733 9.39989,31.55733 l 10.6833,52.12683 -29.03429,27.69849 z"
     id="path152"
     inkscape:connector-curvature="0"
     style="fill:#a0616a" />
  <circle
     cx="184.9052"
     cy="169.69762"
     r="31.4067"
     id="circle154"
     style="fill:#a0616a" />
  <path
     d="m 169.20185,188.89061 5.23445,33.15152 38.386,-6.97927 c 0,0 -1.74481,-33.15152 -1.74481,-36.64115 0,-3.48963 -41.87564,10.4689 -41.87564,10.4689 z"
     id="path156"
     inkscape:connector-curvature="0"
     style="fill:#a0616a" />
  <path
     d="m 167.45704,222.04213 c 0,0 43.62042,-10.4689 48.85487,-6.97927 5.23445,3.48963 31.4067,6.97927 31.4067,6.97927 l 29.66189,45.36524 -8.72409,57.57895 c 0,0 -1.74481,92.4753 1.74482,108.17865 3.48963,15.70335 22.68262,17.44817 -17.44817,20.9378 -40.13079,3.48963 -47.11,-1.74481 -75.02712,5.23445 -27.91712,6.97926 -50.59969,-3.48963 -43.62042,-10.4689 6.97927,-6.97927 19.193,-118.64754 5.23445,-129.11645 -13.95855,-10.46891 -19.193,-64.55822 -19.193,-64.55822 0,0 47.11007,-24.42744 47.11007,-33.15152 z"
     id="path158"
     inkscape:connector-curvature="0"
     style="fill:#3f3d56" />
  <path
     d="m 242.48416,227.27658 5.23445,-5.23445 10.4689,-10.4689 c 0,0 34.02393,14.83094 32.27912,20.06539 -1.74481,5.23445 -13.08613,35.76875 -13.08613,35.76875 l -15.70335,5.23445 z"
     id="path160"
     inkscape:connector-curvature="0"
     style="fill:#3f3d56" />
  <path
     d="m 195.86567,131.64808 -0.32186,-2.51594 a 19.77829,19.77829 0 0 0 -6.2856,0.9877 10.32665,10.32665 0 0 1 0.388,-4.52107 20.103,20.103 0 0 0 -5.81783,2.52934 l -1.26884,-4.59162 -17.4426,8.59632 c -6.26123,3.08575 -12.86249,6.47669 -16.44172,12.46952 -3.99031,6.68112 -3.29591,15.26752 -0.56816,22.55582 2.72775,7.2883 7.26036,13.73814 10.89358,20.62 a 51.51652,51.51652 0 0 0 4.95064,8.426 c 6.58389,8.20751 19.3997,9.86569 28.68263,4.91211 3.42591,-1.82815 6.53859,-4.56058 7.948,-8.17894 0.84275,-2.16359 1.03547,-4.51792 1.58763,-6.77324 1.14826,-4.69012 2.48122,-14.37168 6.29067,-17.3388 1.67631,-1.30565 4.99988,3.02263 6.389,1.41483 3.5699,-4.13179 2.82068,-10.5038 0.60359,-15.494 a 113.05265,113.05265 0 0 0 -7.4426,-14.51667 c -1.19788,-1.87077 -12.18314,-8.88314 -12.14453,-8.58136 z"
     id="path162"
     inkscape:connector-curvature="0"
     style="fill:#2f2e41" />
  <path
     d="m 92.42991,297.06926 c 0,0 -41.87559,40.13074 -36.64115,61.06859 5.23444,20.93785 47.11005,82.00639 47.11005,82.00639 0,0 40.13079,20.9378 45.36524,0 5.23445,-20.9378 -27.91707,-15.70335 -27.91707,-15.70335 l -26.17225,-62.81341 29.66188,-41.87561 z"
     id="path164"
     inkscape:connector-curvature="0"
     style="fill:#a0616a" />
  <path
     d="m 141.28478,258.68328 -20.9378,-3.48963 c 0,0 -15.70335,17.44817 -20.9378,24.42744 -5.23445,6.97927 -15.70335,24.42743 -15.70335,24.42743 l 36.64115,26.17226 27.91707,-29.66189 z"
     id="path166"
     inkscape:connector-curvature="0"
     style="fill:#3f3d56" />
</svg>
